<?xml version="1.0" encoding="UTF-8"?>
<svg xmlns="http://www.w3.org/2000/svg" xmlns:xlink="http://www.w3.org/1999/xlink" width="1000px" height="1125px" viewBox="0 0 92 103" version="1.1">
<defs>
<clipPath id="clip1">
  <path d="M 25.648438 25.75 L 66.347656 25.75 L 66.347656 56.941406 L 25.648438 56.941406 Z M 25.648438 25.75 "/>
</clipPath>
<clipPath id="clip2">
  <path d="M 31.390625 29.753906 L 60.613281 29.753906 L 60.613281 52.9375 L 31.390625 52.9375 Z M 31.390625 29.753906 "/>
</clipPath>
<clipPath id="clip3">
  <path d="M 33.113281 62.414062 L 58.890625 62.414062 L 58.890625 77.25 L 33.113281 77.25 Z M 33.113281 62.414062 "/>
</clipPath>
</defs>
<g id="surface1">
<path style=" stroke:none;fill-rule:nonzero;fill:rgb(64.313725%,21.568627%,85.882353%);fill-opacity:1;" d="M 88.527344 51.5 L 90.417969 48.242188 C 93.675781 42.632812 91.742188 35.457031 86.105469 32.21875 L 82.832031 30.339844 L 82.832031 26.574219 C 82.832031 20.097656 77.554688 14.847656 71.046875 14.847656 L 67.265625 14.847656 L 65.375 11.589844 C 62.121094 5.980469 54.910156 4.058594 49.273438 7.296875 L 46 9.175781 L 42.726562 7.296875 C 37.089844 4.058594 29.882812 5.980469 26.625 11.589844 L 24.734375 14.847656 L 20.953125 14.847656 C 14.445312 14.847656 9.167969 20.097656 9.167969 26.574219 L 9.167969 30.339844 L 5.894531 32.21875 C 0.257812 35.457031 -1.671875 42.632812 1.582031 48.242188 L 3.472656 51.5 L 1.582031 54.757812 C -1.671875 60.367188 0.257812 67.539062 5.894531 70.78125 L 9.167969 72.660156 L 9.167969 76.421875 C 9.167969 82.902344 14.445312 88.152344 20.953125 88.152344 L 24.734375 88.152344 L 26.625 91.410156 C 29.882812 97.019531 37.089844 98.941406 42.726562 95.703125 L 46 93.824219 L 49.273438 95.703125 C 54.910156 98.945312 62.117188 97.019531 65.375 91.410156 L 67.265625 88.152344 L 71.042969 88.152344 C 77.554688 88.152344 82.832031 82.902344 82.832031 76.425781 L 82.832031 72.664062 L 86.105469 70.78125 C 91.742188 67.542969 93.671875 60.367188 90.417969 54.757812 Z M 85.589844 33.109375 C 88.078125 34.535156 89.855469 36.84375 90.601562 39.605469 C 91.34375 42.367188 90.960938 45.253906 89.527344 47.726562 L 87.933594 50.472656 L 82.832031 41.675781 L 82.832031 31.523438 Z M 72.207031 77.582031 L 55.59375 87.125 L 36.40625 87.125 L 19.792969 77.582031 L 10.199219 61.046875 L 10.199219 41.953125 L 19.792969 25.417969 L 36.40625 15.871094 L 55.59375 15.871094 L 72.207031 25.417969 L 81.800781 41.953125 L 81.800781 61.046875 Z M 81.796875 63.097656 L 81.796875 72.070312 L 73.992188 76.554688 Z M 71.175781 79.359375 L 66.667969 87.125 L 57.65625 87.125 Z M 53.804688 88.152344 L 46 92.636719 L 38.195312 88.152344 Z M 34.34375 87.125 L 25.332031 87.125 L 20.824219 79.359375 Z M 18.007812 76.554688 L 10.199219 72.070312 L 10.199219 63.097656 Z M 9.167969 59.269531 L 4.664062 51.5 L 9.167969 43.730469 Z M 10.199219 39.902344 L 10.199219 30.929688 L 18.007812 26.445312 Z M 20.824219 23.640625 L 25.332031 15.875 L 34.34375 15.875 Z M 38.195312 14.847656 L 46 10.363281 L 53.804688 14.847656 Z M 57.65625 15.875 L 66.667969 15.875 L 71.175781 23.640625 Z M 73.992188 26.445312 L 81.796875 30.929688 L 81.796875 39.902344 Z M 82.832031 43.730469 L 87.335938 51.5 L 82.832031 59.269531 Z M 71.042969 15.875 C 73.917969 15.875 76.617188 16.988281 78.648438 19.007812 C 80.679688 21.027344 81.800781 23.71875 81.800781 26.578125 L 81.800781 29.746094 L 72.960938 24.667969 L 67.859375 15.875 Z M 49.789062 8.183594 C 52.277344 6.753906 55.175781 6.375 57.949219 7.117188 C 60.722656 7.855469 63.042969 9.628906 64.480469 12.101562 L 66.070312 14.847656 L 55.867188 14.847656 L 47.03125 9.769531 Z M 27.519531 12.101562 C 28.953125 9.625 31.273438 7.855469 34.046875 7.113281 C 36.824219 6.375 39.722656 6.753906 42.207031 8.183594 L 44.96875 9.769531 L 36.128906 14.84375 L 25.925781 14.84375 Z M 10.199219 26.574219 C 10.199219 23.714844 11.320312 21.03125 13.351562 19.007812 C 15.382812 16.988281 18.082031 15.871094 20.957031 15.871094 L 24.140625 15.871094 L 19.039062 24.667969 L 10.199219 29.746094 Z M 2.472656 47.726562 C 1.039062 45.25 0.65625 42.367188 1.402344 39.605469 C 2.144531 36.847656 3.925781 34.539062 6.410156 33.109375 L 9.171875 31.523438 L 9.171875 41.679688 L 4.066406 50.476562 Z M 6.410156 69.890625 C 3.921875 68.460938 2.144531 66.15625 1.398438 63.394531 C 0.65625 60.632812 1.035156 57.746094 2.472656 55.273438 L 4.066406 52.527344 L 9.167969 61.320312 L 9.167969 71.476562 Z M 20.953125 87.125 C 18.082031 87.125 15.382812 86.011719 13.351562 83.992188 C 11.320312 81.96875 10.199219 79.28125 10.199219 76.421875 L 10.199219 73.253906 L 19.039062 78.332031 L 24.140625 87.125 Z M 42.210938 94.816406 C 39.722656 96.242188 36.824219 96.625 34.050781 95.882812 C 31.273438 95.144531 28.957031 93.371094 27.519531 90.898438 L 25.925781 88.152344 L 36.132812 88.152344 L 44.96875 93.230469 Z M 64.480469 90.898438 C 63.042969 93.375 60.726562 95.144531 57.953125 95.882812 C 55.175781 96.625 52.277344 96.246094 49.789062 94.816406 L 47.03125 93.230469 L 55.871094 88.152344 L 66.074219 88.152344 Z M 81.796875 76.421875 C 81.796875 79.28125 80.679688 81.96875 78.648438 83.992188 C 76.617188 86.011719 73.917969 87.125 71.042969 87.125 L 67.859375 87.125 L 72.960938 78.332031 L 81.796875 73.253906 Z M 90.601562 63.390625 C 89.855469 66.152344 88.078125 68.460938 85.589844 69.890625 L 82.832031 71.476562 L 82.832031 61.320312 L 87.933594 52.523438 L 89.523438 55.269531 C 90.960938 57.746094 91.34375 60.632812 90.601562 63.390625 Z M 90.601562 63.390625 "/>
<g clip-path="url(#clip1)" clip-rule="nonzero">
<path style=" stroke:none;fill-rule:nonzero;fill:rgb(64.313725%,21.568627%,85.882353%);fill-opacity:1;" d="M 66.253906 32.441406 C 66.0625 29.203125 65.519531 28.300781 65.519531 28.300781 C 63.84375 24.96875 61.753906 25.6875 59.878906 26.164062 C 56.5625 26.183594 53.261719 26.898438 49.957031 27.277344 C 43.015625 27.335938 36.015625 26.378906 29.113281 28.742188 C 28.464844 29.46875 24.976562 28.886719 25.765625 32.855469 C 25.972656 34.503906 26.726562 36.339844 26.703125 37.851562 C 26.804688 38.117188 26.949219 37.511719 27.011719 37.890625 C 27.226562 38.921875 27.574219 38.4375 27.863281 39.042969 C 27.460938 40.667969 27.75 42.023438 28.023438 43.441406 C 27.542969 43.808594 26.921875 43.636719 26.644531 44.859375 C 26.617188 45.746094 26.460938 45.578125 26.292969 45.539062 C 26.167969 45.511719 25.917969 45.609375 25.957031 45.890625 C 26.101562 46.839844 25.484375 47.390625 25.871094 48.324219 C 25.605469 49.332031 26.054688 50.207031 25.996094 51.300781 C 25.988281 51.523438 26.03125 51.710938 26.097656 51.761719 C 26.394531 52.039062 25.960938 52.585938 26.007812 53.171875 C 29.046875 57.199219 32.347656 54.417969 35.464844 56.269531 C 36.277344 54.972656 35.667969 56.726562 35.992188 56.457031 C 36.242188 56.140625 36.425781 57.453125 36.710938 56.707031 C 36.757812 56.496094 36.6875 55.988281 36.847656 56.085938 C 36.929688 56.140625 37 56.125 37.011719 55.828125 C 37.03125 55.382812 36.878906 55.660156 36.839844 55.425781 C 37.273438 54.25 37.164062 57.050781 37.574219 56.933594 C 37.554688 56.59375 37.433594 56.101562 37.679688 56.164062 C 37.917969 55.671875 37.925781 55.265625 38.140625 56.371094 C 38.148438 56.613281 38.1875 56.78125 38.25 56.898438 C 38.917969 55.691406 39.582031 57.324219 40.285156 56.78125 C 40.714844 56.183594 41.128906 57.105469 41.566406 56.878906 C 41.71875 56.695312 41.875 56.371094 42.023438 56.917969 C 43.824219 57.03125 45.75 56.546875 47.460938 56.933594 C 52.03125 56.210938 56.914062 57.234375 61.734375 56.273438 C 62.871094 55.90625 64.050781 55.382812 65.160156 54.960938 C 65.160156 54.960938 66.058594 53.808594 66.058594 48.628906 C 66.058594 43.449219 66.25 44.09375 66.277344 39.96875 C 66.304688 35.847656 66.441406 35.675781 66.25 32.441406 Z M 66.253906 32.441406 "/>
</g>
<g clip-path="url(#clip2)" clip-rule="nonzero">
<path style=" stroke:none;fill-rule:nonzero;fill:rgb(100%,100%,100%);fill-opacity:1;" d="M 53.636719 29.753906 L 60.125 29.753906 L 60.125 30.550781 L 57.160156 30.898438 L 57.925781 51.894531 L 60.613281 52.105469 L 60.613281 52.9375 L 51.753906 52.9375 L 51.753906 52.207031 L 54.40625 51.894531 L 53.496094 33.988281 L 46.488281 52.9375 L 44.640625 52.9375 L 36.269531 34.160156 L 35.609375 51.234375 L 38.539062 52.105469 L 38.539062 52.9375 L 31.390625 52.9375 L 31.390625 52.105469 L 34.28125 51.097656 L 34.980469 30.898438 L 32.015625 30.550781 L 32.015625 29.753906 L 38.1875 29.753906 L 46.488281 49.085938 Z M 53.636719 29.753906 "/>
</g>
<g clip-path="url(#clip3)" clip-rule="nonzero">
<path style=" stroke:none;fill-rule:nonzero;fill:rgb(69.411765%,61.568627%,81.568627%);fill-opacity:1;" d="M 39.410156 62.414062 L 41.117188 62.414062 L 41.117188 77.054688 L 39.605469 77.054688 L 39.46875 76.175781 C 39.167969 76.527344 38.808594 76.792969 38.390625 76.976562 C 37.972656 77.160156 37.515625 77.25 37.019531 77.25 C 36.273438 77.25 35.605469 77.03125 35.015625 76.59375 C 34.429688 76.160156 33.964844 75.566406 33.625 74.808594 C 33.285156 74.054688 33.113281 73.214844 33.113281 72.292969 C 33.113281 71.394531 33.273438 70.566406 33.597656 69.804688 C 33.914062 69.042969 34.375 68.433594 34.96875 67.976562 C 35.5625 67.523438 36.246094 67.292969 37.019531 67.292969 C 37.972656 67.292969 38.769531 67.625 39.410156 68.289062 Z M 37.195312 75.746094 C 37.914062 75.746094 38.488281 75.464844 38.921875 74.894531 C 39.351562 74.332031 39.566406 73.460938 39.566406 72.292969 C 39.566406 71.160156 39.351562 70.296875 38.921875 69.707031 C 38.488281 69.113281 37.914062 68.816406 37.195312 68.816406 C 36.75 68.816406 36.351562 68.964844 35.996094 69.265625 C 35.644531 69.566406 35.367188 69.976562 35.164062 70.503906 C 34.960938 71.03125 34.859375 71.628906 34.859375 72.292969 C 34.859375 72.917969 34.960938 73.492188 35.164062 74.015625 C 35.367188 74.546875 35.648438 74.964844 36.007812 75.277344 C 36.367188 75.589844 36.761719 75.746094 37.195312 75.746094 Z M 47.277344 77.25 C 46.308594 77.25 45.480469 77.023438 44.792969 76.574219 C 44.109375 76.125 43.59375 75.519531 43.242188 74.75 C 42.898438 73.984375 42.726562 73.132812 42.726562 72.195312 C 42.726562 71.296875 42.886719 70.472656 43.203125 69.722656 C 43.527344 68.976562 43.992188 68.382812 44.597656 67.945312 C 45.207031 67.511719 45.929688 67.292969 46.765625 67.292969 C 47.839844 67.292969 48.710938 67.652344 49.382812 68.367188 C 50.058594 69.082031 50.394531 70.074219 50.394531 71.335938 C 50.394531 71.554688 50.371094 71.863281 50.316406 72.253906 L 44.472656 72.253906 C 44.511719 73.382812 44.796875 74.242188 45.324219 74.828125 C 45.855469 75.414062 46.542969 75.707031 47.394531 75.707031 C 47.800781 75.707031 48.226562 75.660156 48.679688 75.558594 C 49.128906 75.464844 49.527344 75.324219 49.867188 75.140625 L 50.023438 76.664062 C 49.304688 77.054688 48.390625 77.25 47.277344 77.25 Z M 44.550781 71.0625 L 48.648438 71.0625 C 48.648438 70.410156 48.488281 69.878906 48.167969 69.46875 C 47.847656 69.058594 47.386719 68.855469 46.785156 68.855469 C 46.199219 68.855469 45.710938 69.039062 45.324219 69.402344 C 44.9375 69.765625 44.679688 70.320312 44.550781 71.0625 Z M 54.003906 77.054688 L 50.808594 67.488281 L 52.632812 67.488281 L 54.863281 75.042969 L 57.066406 67.488281 L 58.886719 67.488281 L 55.710938 77.054688 Z M 54.003906 77.054688 "/>
</g>
</g>
</svg>
