<svg xmlns="http://www.w3.org/2000/svg" version="1.1" xmlns:xlink="http://www.w3.org/1999/xlink" xmlns:svgjs="http://svgjs.dev/svgjs" width="1000" height="1125" viewBox="0 0 1000 1125"><g transform="matrix(1,0,0,1,0.0011008540699322111,0)"><svg viewBox="0 0 320 360" data-background-color="#ffffff" preserveAspectRatio="xMidYMid meet" height="1125" width="1000" xmlns="http://www.w3.org/2000/svg" xmlns:xlink="http://www.w3.org/1999/xlink"><g id="tight-bounds" transform="matrix(1,0,0,1,0.00010353528136874957,0)"><svg viewBox="0 0 320 360" height="360" width="320"><g><svg></svg></g><g><svg viewBox="0 0 320 360" height="360" width="320"><g><path xmlns="http://www.w3.org/2000/svg" d="M307.925 179.999l6.575-11.387c11.322-19.607 4.604-44.679-15.003-56.001l-11.387-6.575v-13.151c0-22.639-18.354-40.994-40.994-40.994h-13.151l-6.575-11.387c-11.322-19.607-36.393-26.325-56.001-15.003l-11.39 6.572-11.387-6.576c-19.607-11.318-44.679-4.6-56.001 15.007l-6.575 11.387h-13.151c-22.639 0-40.994 18.354-40.994 40.994v13.151l-11.387 6.575c-19.607 11.322-26.325 36.393-15.003 56.001l6.572 11.387-6.576 11.387c-11.318 19.607-4.6 44.679 15.007 56l11.387 6.576v13.15c0 22.639 18.354 40.994 40.994 40.994h13.151l6.575 11.387c11.322 19.607 36.393 26.325 56.001 15.003l11.387-6.571 11.387 6.575c19.607 11.322 44.679 4.604 56-15.003l6.576-11.387h13.15c22.639 0 40.994-18.354 40.994-40.994v-13.151l11.387-6.575c19.607-11.322 26.325-36.393 15.003-56.001zM297.702 115.716c8.655 4.996 14.842 13.062 17.428 22.713 2.586 9.65 1.261 19.734-3.735 28.384l-5.538 9.596-17.747-30.74v-35.494zM251.155 271.155l-57.791 33.365h-66.731l-57.791-33.365-33.365-57.791v-66.731l33.365-57.791 57.791-33.365h66.731l57.791 33.365 33.365 57.791v66.731zM284.517 220.539v31.351l-27.151 15.676zM247.566 277.366l-15.676 27.151h-31.351zM187.15 308.106l-27.151 15.676-27.151-15.676zM119.459 304.517h-31.352l-15.676-27.151zM62.632 267.566l-27.151-15.676v-31.351zM31.891 207.15l-15.675-27.151 15.675-27.151zM35.481 139.459v-31.352l27.151-15.676zM72.431 82.632l15.676-27.151h31.352zM132.848 51.891l27.151-15.675 27.151 15.675zM200.539 55.481h31.351l15.676 27.151zM257.366 92.431l27.151 15.676v31.352zM288.106 152.848l15.676 27.151-15.676 27.151zM247.112 55.481c9.992 0 19.384 3.889 26.452 10.956 7.063 7.063 10.956 16.46 10.957 26.452v11.079l-30.741-17.747-17.747-30.74zM173.18 28.606c8.655-4.996 18.735-6.322 28.385-3.735 9.65 2.586 17.716 8.777 22.712 17.428l5.538 9.596h-35.494l-30.741-17.747zM95.716 42.295c4.996-8.655 13.062-14.842 22.713-17.428 9.65-2.586 19.734-1.261 28.384 3.736l9.596 5.537-30.74 17.747h-35.494zM35.481 92.885c0-9.992 3.889-19.384 10.956-26.452 7.063-7.063 16.46-10.956 26.452-10.956h11.079l-17.747 30.74-30.74 17.747zM8.606 166.817c-4.996-8.655-6.322-18.735-3.735-28.385 2.586-9.65 8.777-17.716 17.428-22.712l9.596-5.538v35.495l-17.747 30.74zM22.295 244.281c-8.655-4.996-14.842-13.062-17.428-22.712-2.586-9.65-1.261-19.734 3.736-28.385l5.537-9.596 17.747 30.74v35.495zM72.885 304.517c-9.992 0-19.384-3.889-26.452-10.957-7.063-7.063-10.956-16.46-10.956-26.451v-11.08l30.74 17.747 17.747 30.741zM146.817 331.391c-8.655 4.996-18.735 6.322-28.385 3.735-9.65-2.586-17.716-8.777-22.712-17.428l-5.538-9.596h35.495l30.74 17.747zM224.281 317.702c-4.996 8.655-13.062 14.842-22.712 17.428-9.65 2.586-19.734 1.261-28.385-3.735l-9.596-5.538 30.74-17.747h35.495zM284.517 267.112c0 9.992-3.889 19.384-10.957 26.452-7.063 7.063-16.46 10.956-26.451 10.957h-11.08l17.747-30.741 30.741-17.747zM315.13 221.565c-2.586 9.65-8.777 17.716-17.428 22.712l-9.596 5.538v-35.494l17.747-30.741 5.538 9.596c4.996 8.658 6.326 18.739 3.739 28.389z" fill="#a437db" fill-rule="nonzero" stroke="none" stroke-width="1" stroke-linecap="butt" stroke-linejoin="miter" stroke-miterlimit="10" stroke-dasharray="" stroke-dashoffset="0" font-family="none" font-weight="none" font-size="none" text-anchor="none" style="mix-blend-mode: normal" data-fill-palette-color="tertiary"></path></g><g transform="matrix(1,0,0,1,89.21684755880291,90)"><svg viewBox="0 0 141.56630488239418 180" height="180" width="141.56630488239418"><g><svg viewBox="0 0 192 244.12588877494983" height="180" width="141.56630488239418"><g><svg viewBox="0 0 192 244.12588877494983" height="244.12588877494983" width="192"><g id="textblocktransform"><svg viewBox="0 0 192 244.12588877494983" height="244.12588877494983" width="192" id="textblock"><g><svg viewBox="0 0 192 147.8539096801909" height="147.8539096801909" width="192"><path d="M191.55 31.712C190.648 16.365 188.075 12.098 188.075 12.098 180.177-3.709 170.321-0.302 161.466 1.969 145.832 2.061 130.262 5.437 114.664 7.248 81.926 7.525 48.907 2.982 16.331 14.185 13.271 17.623-3.175 14.861 0.544 33.676 1.519 41.503 5.076 50.19 4.967 57.372 5.455 58.631 6.132 55.746 6.42 57.556 7.431 62.437 9.083 60.135 10.437 63.02 8.551 70.724 9.905 77.139 11.195 83.862 8.921 85.611 6.005 84.782 4.696 90.584 4.561 94.789 3.83 93.991 3.027 93.807 2.44 93.684 1.257 94.144 1.456 95.464 2.133 99.976-0.774 102.585 1.05 107.005-0.205 111.793 1.916 115.937 1.627 121.125 1.591 122.168 1.79 123.058 2.106 123.304 3.505 124.624 1.465 127.202 1.682 129.995 16.033 149.087 31.604 135.889 46.308 144.667 50.126 138.528 47.256 146.846 48.781 145.557 49.972 144.053 50.839 150.284 52.184 146.754 52.392 145.741 52.076 143.347 52.816 143.808 53.204 144.053 53.547 143.992 53.601 142.58 53.682 140.462 52.969 141.782 52.78 140.677 54.829 135.09 54.323 148.381 56.246 147.829 56.156 146.202 55.596 143.869 56.742 144.176 57.88 141.843 57.916 139.909 58.927 145.158 58.963 146.294 59.143 147.092 59.432 147.644 62.591 141.935 65.732 149.67 69.045 147.092 71.076 144.268 73.026 148.627 75.084 147.552 75.806 146.693 76.537 145.158 77.232 147.737 85.744 148.289 94.815 145.987 102.885 147.829 124.449 144.391 147.493 149.241 170.23 144.698 175.592 142.948 181.161 140.462 186.387 138.467 186.387 138.467 190.621 133.003 190.621 108.448S191.523 86.962 191.659 67.409C191.794 47.857 192.426 47.059 191.523 31.712Z" opacity="1" fill="#a437db" data-fill-palette-color="tertiary"></path><g transform="matrix(1,0,0,1,27.072000000000003,18.981962000000003)"><svg width="137.856" viewBox="1.7000000476837158 -33.400001525878906 41.89999771118164 33.400001525878906" height="109.8899856801909" data-palette-color="#ffffff"><path d="M33.6-33.4L42.9-33.4 42.9-32.25 38.65-31.75 39.75-1.5 43.6-1.2 43.6 0 30.9 0 30.9-1.05 34.7-1.5 33.4-27.3 23.35 0 20.7 0 8.7-27.05 7.75-2.45 11.95-1.2 11.95 0 1.7 0 1.7-1.2 5.85-2.65 6.85-31.75 2.6-32.25 2.6-33.4 11.45-33.4 23.35-5.55 33.6-33.4Z" opacity="1" transform="matrix(1,0,0,1,0,0)" fill="#ffffff" class="wordmark-text-0" data-fill-palette-color="quaternary" id="text-0"></path></svg></g></svg></g><g transform="matrix(1,0,0,1,35.20191950157015,173.79629793962764)"><svg viewBox="0 0 121.5961609968597 70.3295908353222" height="70.3295908353222" width="121.5961609968597"><g transform="matrix(1,0,0,1,0,0)"><svg width="121.5961609968597" viewBox="1.4500000476837158 -37.5 65.69000244140625 38" height="70.3295908353222" data-palette-color="#b19dd0"><path d="M17.5-37.5L21.85-37.5 21.85 0 18 0 17.65-2.25Q16.5-0.9 14.9-0.2 13.3 0.5 11.4 0.5L11.4 0.5Q8.55 0.5 6.3-1.18 4.05-2.85 2.75-5.75 1.45-8.65 1.45-12.2L1.45-12.2Q1.45-15.65 2.68-18.57 3.9-21.5 6.18-23.25 8.45-25 11.4-25L11.4-25Q15.05-25 17.5-22.45L17.5-22.45 17.5-37.5ZM11.85-3.35Q14.6-3.35 16.25-5.53 17.9-7.7 17.9-12.2L17.9-12.2Q17.9-16.55 16.25-18.82 14.6-21.1 11.85-21.1L11.85-21.1Q10.15-21.1 8.8-19.95 7.45-18.8 6.68-16.78 5.9-14.75 5.9-12.2L5.9-12.2Q5.9-9.8 6.68-7.78 7.45-5.75 8.83-4.55 10.2-3.35 11.85-3.35L11.85-3.35ZM37.55 0.5Q33.85 0.5 31.22-1.23 28.6-2.95 27.27-5.9 25.95-8.85 25.95-12.45L25.95-12.45Q25.95-15.9 27.17-18.78 28.4-21.65 30.72-23.33 33.05-25 36.25-25L36.25-25Q40.35-25 42.92-22.25 45.5-19.5 45.5-14.65L45.5-14.65Q45.5-13.8 45.3-12.3L45.3-12.3 30.4-12.3Q30.55-7.95 32.57-5.7 34.6-3.45 37.85-3.45L37.85-3.45Q39.4-3.45 41.12-3.83 42.85-4.2 44.15-4.9L44.15-4.9 44.55-1Q41.8 0.5 37.55 0.5L37.55 0.5ZM30.6-15.35L41.05-15.35Q41.05-17.85 39.82-19.43 38.6-21 36.3-21L36.3-21Q34.05-21 32.57-19.6 31.1-18.2 30.6-15.35L30.6-15.35ZM54.7 0L46.55-24.5 51.2-24.5 56.89-5.15 62.5-24.5 67.14-24.5 59.05 0 54.7 0Z" opacity="1" transform="matrix(1,0,0,1,0,0)" fill="#b19dd0" class="slogan-text-1" data-fill-palette-color="secondary" id="text-1"></path></svg></g></svg></g></svg></g></svg></g><g></g></svg></g></svg></g></svg></g><defs></defs></svg><rect width="320" height="360" fill="none" stroke="none" visibility="hidden"></rect></g></svg></g></svg>