<?xml version="1.0" standalone="no"?>
<!DOCTYPE svg PUBLIC "-//W3C//DTD SVG 20010904//EN"
 "http://www.w3.org/TR/2001/REC-SVG-20010904/DTD/svg10.dtd">
<svg version="1.0" xmlns="http://www.w3.org/2000/svg"
 width="166.000000pt" height="197.000000pt" viewBox="0 0 166.000000 197.000000"
 preserveAspectRatio="xMidYMid meet">

<g transform="translate(0.000000,197.000000) scale(0.100000,-0.100000)"
fill="#000000" stroke="none">
<path d="M631 1206 c-21 -26 -9 -51 24 -51 27 0 30 3 30 30 0 23 -5 31 -21 33
-11 2 -26 -4 -33 -12z"/>
<path d="M960 1200 c-9 -16 -8 -25 1 -36 26 -32 84 0 62 34 -16 26 -50 27 -63
2z"/>
<path d="M785 1071 c-106 -44 -118 -301 -17 -367 89 -58 181 32 182 176 0 135
-78 226 -165 191z"/>
</g>
</svg>
